<svg aria-hidden="true" style="position: absolute; width: 0; height: 0; overflow: hidden;" version="1.1" xmlns="http://www.w3.org/2000/svg" xmlns:xlink="http://www.w3.org/1999/xlink">
<defs>
<symbol id="icon-white-tel" viewBox="0 0 32 32">
<path fill="#fff" style="fill: var(--color1, #fff)" d="M29.994 32c-17.062 0.024-30.012-13.080-29.994-29.994 0-1.106 0.896-2.006 2-2.006h5.28c0.99 0 1.832 0.728 1.978 1.708 0.348 2.35 1.032 4.638 2.030 6.794l0.206 0.444c0.138 0.299 0.168 0.636 0.084 0.955s-0.277 0.598-0.544 0.789c-1.636 1.168-2.26 3.518-0.986 5.35 1.598 2.3 3.612 4.316 5.912 5.914 1.834 1.272 4.184 0.648 5.35-0.986 0.191-0.269 0.471-0.462 0.79-0.546s0.657-0.055 0.956 0.084l0.442 0.204c2.156 1 4.444 1.684 6.794 2.032 0.98 0.146 1.708 0.988 1.708 1.98v5.278c0 0.263-0.052 0.523-0.152 0.766s-0.248 0.463-0.434 0.649c-0.186 0.186-0.407 0.333-0.65 0.433s-0.503 0.152-0.766 0.152h-0.004z"></path>
</symbol>
<symbol id="icon-email" viewBox="0 0 34 32">
<path fill="#e2b076" style="fill: var(--color2, #e2b076)" d="M24.205 7.795h-13.949v11.487h13.949v-11.487zM22.81 10.667l-5.579 3.59-5.579-3.59v-1.436l5.579 3.59 5.579-3.59v1.436z"></path>
</symbol>
<symbol id="icon-tel" viewBox="0 0 34 34">
<path fill="#e2b076" style="fill: var(--color2, #e2b076)" d="M21.664 20.19c-6.906 0.010-12.148-5.294-12.14-12.14 0-0.448 0.363-0.812 0.81-0.812h2.137c0.401 0 0.742 0.295 0.801 0.691 0.141 0.951 0.418 1.877 0.822 2.75l0.083 0.18c0.056 0.121 0.068 0.258 0.034 0.386s-0.112 0.242-0.22 0.319c-0.662 0.473-0.915 1.424-0.399 2.165 0.647 0.931 1.462 1.747 2.393 2.394 0.742 0.515 1.694 0.262 2.165-0.399 0.078-0.109 0.191-0.187 0.32-0.221s0.266-0.022 0.387 0.034l0.179 0.083c0.873 0.405 1.799 0.682 2.75 0.822 0.397 0.059 0.691 0.4 0.691 0.801v2.136c0 0.106-0.021 0.212-0.062 0.31s-0.1 0.188-0.176 0.263c-0.075 0.075-0.165 0.135-0.263 0.175s-0.204 0.061-0.31 0.061h-0.002z"></path>
</symbol>
<symbol id="icon-cross" viewBox="0 0 32 32">
<path fill="none" stroke="#e2b076" style="stroke: var(--color1, #e2b076)" stroke-linejoin="miter" stroke-linecap="butt" stroke-miterlimit="4" stroke-width="1.1429" d="M1.143 1.143l30.286 30.286M31.429 1.143l-30.286 30.286"></path>
</symbol>
<symbol id="icon-burger" viewBox="0 0 47 32">
<path fill="none" stroke="#e2b076" style="stroke: var(--color1, #e2b076)" stroke-linejoin="miter" stroke-linecap="butt" stroke-miterlimit="4" stroke-width="1.5238" d="M0 1.524h47.238"></path>
<path fill="none" stroke="#e2b076" style="stroke: var(--color1, #e2b076)" stroke-linejoin="miter" stroke-linecap="butt" stroke-miterlimit="4" stroke-width="1.5238" d="M0 15.238h47.238"></path>
<path fill="none" stroke="#e2b076" style="stroke: var(--color1, #e2b076)" stroke-linejoin="miter" stroke-linecap="butt" stroke-miterlimit="4" stroke-width="1.5238" d="M0 30.476h47.238"></path>
</symbol>
</defs>
</svg>
